<svg width="24" height="24" viewBox="0 0 24 24" fill="none" xmlns="http://www.w3.org/2000/svg">
  <path d="M15.6 10.79C16.57 9.95 17.25 8.78 17.25 7.5C17.25 5.57 15.68 4 13.75 4C11.82 4 10.25 5.57 10.25 7.5H12.25C12.25 6.67 12.92 6 13.75 6C14.58 6 15.25 6.67 15.25 7.5C15.25 8.33 14.58 9 13.75 9H12V11H13.75C14.58 11 15.25 11.67 15.25 12.5C15.25 13.33 14.58 14 13.75 14C12.92 14 12.25 13.33 12.25 12.5H10.25C10.25 14.43 11.82 16 13.75 16C15.68 16 17.25 14.43 17.25 12.5C17.25 11.22 16.57 10.05 15.6 10.79Z" fill="#FF9800"/>
  <path d="M6 4V6H4V8H6V10H8V8H10V6H8V4H6Z" fill="#FF9800"/>
  <path d="M6 14V16H4V18H6V20H8V18H10V16H8V14H6Z" fill="#FF9800"/>
</svg>