<svg width="24" height="24" viewBox="0 0 24 24" fill="none" xmlns="http://www.w3.org/2000/svg">
<path d="M9 20L7 22L2 17L7 12L9 14L6 17L9 20Z" fill="currentColor"/>
<path d="M20.5 6C20.5 8.21 18.71 10 16.5 10C14.29 10 12.5 8.21 12.5 6C12.5 3.79 14.29 2 16.5 2C18.71 2 20.5 3.79 20.5 6Z" fill="currentColor"/>
<path d="M17.5 12C15.01 12 13 14.01 13 16.5C13 18.99 15.01 21 17.5 21C19.99 21 22 18.99 22 16.5C22 14.01 19.99 12 17.5 12Z" fill="currentColor"/>
<path d="M8.5 12C6.01 12 4 14.01 4 16.5C4 18.99 6.01 21 8.5 21C10.99 21 13 18.99 13 16.5C13 14.01 10.99 12 8.5 12Z" fill="currentColor"/>
<path d="M12 6L14 8L19 3L14 -2L12 0L15 3L12 6Z" fill="currentColor"/>
</svg>