<?xml version="1.0" standalone="no"?><!DOCTYPE svg PUBLIC "-//W3C//DTD SVG 1.1//EN" "http://www.w3.org/Graphics/SVG/1.1/DTD/svg11.dtd"><svg t="1758621744357" class="icon" viewBox="0 0 1024 1024" version="1.1" xmlns="http://www.w3.org/2000/svg" p-id="77959" xmlns:xlink="http://www.w3.org/1999/xlink" width="128" height="128"><path d="M513 1019c-68.3 0-134.6-13.4-197-39.8-60.3-25.5-114.4-62-160.8-108.4C108.7 824.3 72.3 770.2 46.8 710 20.4 647.6 7 581.3 7 513s13.4-134.6 39.8-197c25.5-60.3 62-114.4 108.4-160.8C201.7 108.7 255.8 72.3 316 46.8 378.4 20.4 444.7 7 513 7c47.8 0 95.1 6.7 140.6 19.8 21.2 6.1 33.5 28.3 27.3 49.5-6.1 21.2-28.3 33.5-49.5 27.3C593.1 92.6 553.3 87 513 87 278.1 87 87 278.1 87 513s191.1 426 426 426 426-191.1 426-426c0-43.7-6.6-86.8-19.6-128-6.6-21.1 5.1-43.5 26.2-50.2 21.1-6.6 43.5 5.1 50.2 26.2 15.4 49 23.2 100.2 23.2 152 0 68.3-13.4 134.6-39.8 197-25.5 60.3-62 114.4-108.4 160.8S770.2 953.7 710 979.2c-62.4 26.4-128.7 39.8-197 39.8z" fill="#515151" p-id="77960"></path><path d="M516 757c-64.9 0-125.9-25.3-171.8-71.2C298.3 639.9 273 578.9 273 514s25.3-125.9 71.2-171.8C390.1 296.3 451.1 271 516 271c18.3 0 36.5 2 54.1 6.1 21.5 4.9 35 26.3 30.1 47.9-4.9 21.5-26.3 35-47.9 30.1-11.8-2.7-24.1-4.1-36.4-4.1-89.9 0-163 73.1-163 163s73.1 163 163 163 163-73.1 163-163c0-13.6-1.7-27-4.9-40-5.4-21.4 7.6-43.2 29-48.6 21.4-5.4 43.2 7.6 48.6 29 4.9 19.4 7.4 39.4 7.4 59.6 0 64.9-25.3 125.9-71.2 171.8S580.9 757 516 757zM816.7 114.1c9.9 46.6 46.7 83.6 93.2 93.7l-66.6 66.6c-15.1-7.5-31.8-12.3-49-14.1l-27.4-2.8-2.9-27.9c-1.8-17.1-6.6-33.7-14.1-48.8l66.8-66.7m20.6-113c-12.1 0-24.3 4.3-34.4 13.7-0.5 0.5-1 0.9-1.5 1.4L682.6 135.1c-20.5 20.5-23.1 52.2-7.7 75.4 5.4 8.2 8.6 17.7 9.6 27.5l6.2 59.1c2 19.5 17.5 34.9 37 36.9l58.6 5.9c9.8 1 19.2 4.1 27.4 9.5 10 6.6 21.5 9.9 33 9.9 15.4 0 30.7-5.9 42.4-17.6L1008 222.9c0.5-0.5 1-1 1.4-1.5 29.1-31.1 9.1-82.3-33.4-86.6l-44.7-4.5c-19.5-2-35-17.4-37-36.9L889.5 48c-2.9-28.5-27.2-46.9-52.2-46.9z" fill="#515151" p-id="77961"></path><path d="M510.8 553.5c-10.2 0-20.5-3.9-28.3-11.7-15.6-15.6-15.6-40.9 0-56.6l292.7-292.7c15.6-15.6 40.9-15.6 56.6 0s15.6 40.9 0 56.6L539.1 541.7c-7.8 7.9-18 11.8-28.3 11.8z" fill="#515151" p-id="77962"></path></svg>