<?xml version="1.0" standalone="no"?><!DOCTYPE svg PUBLIC "-//W3C//DTD SVG 1.1//EN" "http://www.w3.org/Graphics/SVG/1.1/DTD/svg11.dtd"><svg t="1759044132287" class="icon" viewBox="0 0 1037 1024" version="1.1" xmlns="http://www.w3.org/2000/svg" p-id="145308" xmlns:xlink="http://www.w3.org/1999/xlink" width="129.625" height="128"><path d="M264.020162 602.341564c-67.12684-3.695159-102.166891-40.187281-105.110943-109.536742 2.944052-75.237565 39.090297-114.693182 108.430548-118.388341 65.645093 4.425799 100.685143 43.150776 105.110943 116.174929C369.496425 562.155307 333.349157 599.398536 264.020162 602.341564zM265.126356 396.546501c-48.682769 4.425799-75.612095 35.780925-80.769558 94.046956 2.944052 56.803727 29.132504 87.407746 78.556147 91.833545 51.626821-2.944052 78.922491-33.54807 81.875752-91.833545C340.363921 432.327426 313.809125 400.972301 265.126356 396.546501z" fill="#D44C1A" p-id="145309"></path><path d="M434.409854 416.462087l-1.106194 21.021779 33.192983 0 0 19.915585-33.192983 0 0 140.516314-23.235191 0L410.06847 457.399451l-25.447579 0 0-19.915585 25.447579 0 0-19.915585c-0.740874-29.497824 11.795651-43.881416 37.618782-43.150776 11.063987 0 21.753443 1.857301 32.086789 5.531993l-4.425799 17.703197c-6.638187-2.212388-13.652951-3.319605-21.021779-3.319605C440.308191 393.60245 433.66898 400.972301 434.409854 416.462087z" fill="#D44C1A" p-id="145310"></path><path d="M520.711406 416.462087l-1.106194 21.021779 33.192983 0 0 19.915585-33.192983 0 0 140.516314-23.235191 0L496.370021 457.399451l-25.447579 0 0-19.915585 25.447579 0 0-19.915585c-0.740874-29.497824 11.795651-43.881416 37.618782-43.150776 11.063987 0 21.753443 1.857301 32.086789 5.531993l-4.425799 17.703197c-6.638187-2.212388-13.652951-3.319605-21.021779-3.319605C526.608719 393.60245 519.970532 400.972301 520.711406 416.462087z" fill="#D44C1A" p-id="145311"></path><path d="M692.208315 548.126802l24.341385 6.638187c-8.851599 32.462343-32.462343 48.307216-70.811766 47.576575-49.423643-2.212388-74.871221-29.497824-76.343759-81.875752 2.212388-55.320956 27.285436-84.08814 75.237565-86.301552 47.201022 1.481747 71.542406 30.248931 73.024154 86.301552 0 2.963495 0 4.801353 0 5.531993L594.842777 525.997805c1.471514 36.156478 18.068518 55.320956 49.788963 57.534368C669.703765 583.532173 685.569104 571.737546 692.208315 548.126802zM595.948971 506.08222l96.259344 0c-1.481747-32.441876-17.337877-49.414433-47.576575-50.89618C614.382808 458.150558 598.161359 475.102648 595.948971 506.08222z" fill="#D44C1A" p-id="145312"></path><path d="M808.383244 457.399451c-8.851599 0-17.336854 5.176906-25.447579 15.489786-6.638187 8.119935-9.957793 21.021779-9.957793 38.724976l0 87.407746-23.235191 0 0-161.539116 23.235191 0 0 28.767184 1.106194 0c7.369851-20.647249 19.915585-31.335682 37.618782-32.086789 8.851599-0.730641 17.703197 1.857301 26.554796 7.745405l-9.957793 22.128997C821.660642 459.612862 815.021431 457.399451 808.383244 457.399451z" fill="#D44C1A" p-id="145313"></path><path d="M501.183653 970.903711l-296.482505 0c-104.907305 0-190.252065-85.356017-190.252065-190.252065L14.449084 215.009935c0-104.897072 85.34476-190.252065 190.252065-190.252065l608.549963 0c104.907305 0 190.252065 85.356017 190.252065 190.252065l0 331.695494c0 18.535145-15.027252 33.573653-33.573653 33.573653s-33.573653-15.038508-33.573653-33.573653L936.355871 215.009935c0-67.868737-55.224766-123.104759-123.104759-123.104759l-608.549963 0c-67.879993 0-123.104759 55.234999-123.104759 123.104759l0 565.641711c0 67.868737 55.224766 123.104759 123.104759 123.104759l296.482505 0c18.546402 0 33.573653 15.038508 33.573653 33.573653C534.75833 955.866227 519.731078 970.903711 501.183653 970.903711z" fill="#D44C1A" p-id="145314"></path><path d="M717.28341 985.89924c-8.600889 0-17.191544-3.278673-23.737634-9.836019L581.632917 864.149339c-13.114692-13.114692-13.114692-34.360576 0-47.475268 13.114692-13.114692 34.360576-13.114692 47.475268 0l88.754417 88.74316 261.651208-248.984724c13.431917-12.764722 34.689057-12.262278 47.465035 1.180895 12.787234 13.44215 12.262278 34.689057-1.169639 47.475268L740.431619 976.652646C733.939765 982.817042 725.611076 985.89924 717.28341 985.89924z" fill="#D44C1A" p-id="145315"></path></svg>