<?xml version="1.0" standalone="no"?><!DOCTYPE svg PUBLIC "-//W3C//DTD SVG 1.1//EN" "http://www.w3.org/Graphics/SVG/1.1/DTD/svg11.dtd"><svg t="1758958303995" class="icon" viewBox="0 0 1024 1024" version="1.1" xmlns="http://www.w3.org/2000/svg" p-id="133238" xmlns:xlink="http://www.w3.org/1999/xlink" width="128" height="128"><path d="M639.36 92.736a42.688 42.688 0 0 0-84.032-14.72L406.016 931.328a42.624 42.624 0 1 0 84.032 14.72L639.36 92.736zM372.032 307.008a42.688 42.688 0 0 0-61.376-59.264l-256 265.216a42.688 42.688 0 0 0 1.088 60.352l256 246.784a42.688 42.688 0 1 0 59.2-61.44L145.664 541.44l226.368-234.496z m279.936 0a42.688 42.688 0 1 1 61.44-59.264l256 265.216a42.688 42.688 0 0 1-1.088 60.352l-256 246.784a42.688 42.688 0 1 1-59.2-61.44l225.216-217.152-226.368-234.496z" fill="#515151" p-id="133239"></path></svg>