<?xml version="1.0" standalone="no"?><!DOCTYPE svg PUBLIC "-//W3C//DTD SVG 1.1//EN" "http://www.w3.org/Graphics/SVG/1.1/DTD/svg11.dtd"><svg t="1759070188659" class="icon" viewBox="0 0 1024 1024" version="1.1" xmlns="http://www.w3.org/2000/svg" p-id="148558" xmlns:xlink="http://www.w3.org/1999/xlink" width="128" height="128"><path d="M895.568485 287.676364V703.20889h-63.92808V287.676364h-127.856162A95.892121 95.892121 0 0 1 607.892121 191.784243V63.928081H256.287676a63.928081 63.928081 0 0 0-63.928081 63.928081v575.352728H128.431515V127.856162a127.856162 127.856162 0 0 1 127.856161-127.856162h351.604445L895.568485 287.676364zM265.940817 977.460357a75.179423 75.179423 0 0 1-7.096017-28.703708h48.841053a36.950431 36.950431 0 0 0 16.301661 24.548383c4.474966 3.132476 9.844924 5.561743 15.98202 7.287801 6.073168 1.789986 12.849544 2.621051 20.393058 2.621051 10.484205 0 19.242352-1.470346 26.402297-4.474965a35.735797 35.735797 0 0 0 16.301661-12.33812 32.411537 32.411537 0 0 0 5.369959-18.539143 24.740167 24.740167 0 0 0-9.717068-20.840555c-6.456736-5.114246-16.365589-9.205644-29.598702-12.338119l-39.507554-9.141716a109.956299 109.956299 0 0 1-34.457235-13.680609 63.992009 63.992009 0 0 1-22.502685-23.461606 68.27519 68.27519 0 0 1-7.863154-33.498314c0-15.598452 4.091397-29.215133 12.146335-40.850044 8.182794-11.570983 19.434137-20.584842 33.754027-26.97765 14.383818-6.392808 30.941191-9.525284 49.672119-9.525284 19.434137 0 36.055438 3.196404 49.799975 9.717068 13.872394 6.520664 24.548383 15.278811 31.964041 26.210513 7.67137 10.867774 11.890623 22.950181 12.785616 36.183294h-47.946061a35.799725 35.799725 0 0 0-7.67137-16.493445 39.891122 39.891122 0 0 0-15.726308-11.570982 59.005619 59.005619 0 0 0-23.653389-4.34711c-13.808465 0-24.740167 3.196404-32.731178 9.717068a30.174054 30.174054 0 0 0-11.826695 24.548383c0 7.735298 3.068548 14.064178 9.205644 19.178425a62.010238 62.010238 0 0 0 25.826944 11.187414l39.699339 9.141715c13.872394 3.196404 25.954801 7.67137 36.183294 13.488825a63.928081 63.928081 0 0 1 23.97303 22.886253c5.753527 9.461356 8.630291 21.415907 8.630291 35.799726 0 15.790236-4.027469 29.790486-12.018479 41.936821a77.736546 77.736546 0 0 1-34.457236 28.064427c-14.959171 6.712448-33.242602 10.100637-54.850293 10.100637-16.237733 0-30.429767-1.917842-42.512174-5.753527a89.755026 89.755026 0 0 1-30.557623-16.109877 72.238731 72.238731 0 0 1-18.539143-23.97303z m-198.432764-2.109627a84.385067 84.385067 0 0 1-5.242102-29.790485h48.841054a36.822575 36.822575 0 0 0 4.730678 17.260582 31.900112 31.900112 0 0 0 29.023348 15.726307c12.146335 0 21.096267-3.516044 26.97765-10.484205 5.817455-7.032089 8.758147-16.940941 8.758148-29.790485v-175.482583h50.567112v174.204021c0 28.128356-7.607442 49.480335-22.822325 64.247721-15.150955 14.703459-36.119366 22.055188-62.96916 22.055188a101.645649 101.645649 0 0 1-36.31115-6.009239 73.197653 73.197653 0 0 1-26.018729-17.00487 72.878012 72.878012 0 0 1-15.534524-24.931952z m581.170184-101.326008v33.370458c0 16.365589-2.493195 30.046198-7.479585 40.9779a55.106006 55.106006 0 0 1-20.584843 24.740168 56.064927 56.064927 0 0 1-30.046198 8.054938 56.448495 56.448495 0 0 1-30.046198-8.054938 55.61743 55.61743 0 0 1-20.456985-24.740168 99.088525 99.088525 0 0 1-7.479586-40.9779v-33.370458c0-16.493445 2.493195-30.110126 7.479586-40.9779a55.61743 55.61743 0 0 1 20.456985-24.740167 55.489574 55.489574 0 0 1 30.046198-8.246722c11.31527 0 21.288051 2.748907 30.046198 8.246722a55.106006 55.106006 0 0 1 20.584843 24.740167c4.98639 10.867774 7.479585 24.484455 7.479585 40.9779z m51.334249 33.178674v-32.795105c0-24.100887-4.411038-44.813585-13.105257-62.202023a93.334998 93.334998 0 0 0-37.717567-40.274691c-16.173804-9.3335-35.735797-14.064178-58.558122-14.064178-22.758397 0-42.32039 4.730678-58.813835 14.064178a92.120365 92.120365 0 0 0-37.65364 40.146835c-8.758147 17.32451-13.105257 38.101136-13.105256 62.329879v32.795105c0 23.97303 4.34711 44.685729 13.105256 62.202023 8.758147 17.32451 21.288051 30.685479 37.65364 40.018979 16.493445 9.269572 36.055438 13.872394 58.813835 13.872393 22.822325 0 42.384318-4.602822 58.62205-13.872393 16.365589-9.3335 28.895493-22.694469 37.653639-40.018979 8.694219-17.516294 13.105257-38.228992 13.105257-62.202023z m82.467224-59.772755v171.007616h-47.690348v-255.648396h42.32039l112.001997 170.048696h2.045699v-170.048696h47.946061v255.712324h-41.936822l-112.57735-171.071544h-2.045699z" fill="#515151" p-id="148559"></path></svg>