<?xml version="1.0" standalone="no"?><!DOCTYPE svg PUBLIC "-//W3C//DTD SVG 1.1//EN" "http://www.w3.org/Graphics/SVG/1.1/DTD/svg11.dtd"><svg t="1758958282105" class="icon" viewBox="0 0 1024 1024" version="1.1" xmlns="http://www.w3.org/2000/svg" p-id="132042" xmlns:xlink="http://www.w3.org/1999/xlink" width="128" height="128"><path d="M437.653333 368.213333a37.333333 37.333333 0 0 1 50.133334-2.325333l2.666666 2.432 117.333334 117.738667a37.333333 37.333333 0 0 1 2.325333 50.133333l-2.432 2.645333-117.333333 116.949334a37.333333 37.333333 0 0 1-55.125334-50.24l2.432-2.666667 90.858667-90.581333-90.965333-91.285334a37.333333 37.333333 0 0 1-2.325334-50.133333l2.432-2.666667z" fill="#515151" p-id="132043"></path><path d="M512 42.666667c259.2 0 469.333333 210.133333 469.333333 469.333333s-210.133333 469.333333-469.333333 469.333333S42.666667 771.2 42.666667 512 252.8 42.666667 512 42.666667z m0 74.666666C294.037333 117.333333 117.333333 294.037333 117.333333 512S294.037333 906.666667 512 906.666667 906.666667 729.962667 906.666667 512 729.962667 117.333333 512 117.333333z" fill="#515151" p-id="132044"></path></svg>