<?xml version="1.0" standalone="no"?><!DOCTYPE svg PUBLIC "-//W3C//DTD SVG 1.1//EN" "http://www.w3.org/Graphics/SVG/1.1/DTD/svg11.dtd"><svg t="1759070215710" class="icon" viewBox="0 0 1024 1024" version="1.1" xmlns="http://www.w3.org/2000/svg" p-id="149949" xmlns:xlink="http://www.w3.org/1999/xlink" width="128" height="128"><path d="M129.44497778 130.26417778c3.04924445-0.47786667 6.0416-0.7168 8.98844444-0.7168h8.98844445c20.43448889 0 40.74382222 0.53475555 60.95075555 1.60426667 20.19555555 1.06951111 40.51626667 1.8432 60.95075556 2.30968888h5.27928889c2.81031111 0 5.68888889 0.05688889 8.63573333 0.18204445 2.93546667 0.12515555 5.632 0.47786667 8.10097778 1.06951111s3.92533333 1.36533333 4.4032 2.30968889c8.45368889 9.48906667 14.97315555 20.69617778 19.54702222 33.62133333 4.57386667 12.93653333 6.87217778 25.67964445 6.87217778 38.25208889v8.18062222c0 3.08337778-0.18204445 6.22364445-0.52337778 9.43217778-0.35271111 3.19715555-0.83057778 6.22364445-1.41084445 9.06808889-0.59164445 2.84444445-1.35395555 5.33617778-2.28693333 7.4752-1.18328889 2.37795555-2.58275555 4.5056-4.23253333 6.40568889-1.64977778 1.90008889-3.28817778 3.80017778-4.93795556 5.68888889v0.7168c0 1.19466667 0.18204445 2.08213333 0.52337778 2.67377778 0.35271111 0.59164445 0.76231111 1.47911111 1.2288 2.67377777 2.58275555 4.98346667 4.58524445 10.1376 5.98471111 15.47377778 1.41084445 5.33617778 2.69653333 10.74062222 3.87982223 16.19057778a298.87146667 298.87146667 0 0 1 2.82168888 19.75182222c0.70542222 6.53084445 1.05813333 13.23235555 1.05813334 20.10453333 0 10.4448-2.52586667 19.63804445-7.5776 27.57973334-5.05173333 7.95306667-11.51431111 14.58631111-19.37635556 19.92248888-7.87342222 5.33617778-16.62293333 9.3184-26.24853333 11.92391112-9.63697778 2.61688889-19.02364445 3.91395555-28.18275556 3.91395555-16.67982222 0-33.64408889-1.24017778-50.90417777-3.73191111-17.26008889-2.49173333-33.9968-5.16551111-50.19875556-8.00995556-0.23893333-3.7888-0.52337778-7.4752-0.87608889-11.03644444-0.35271111-3.56124445-0.52337778-7.23626667-0.52337778-11.03644444 0-24.42808889-0.87608889-48.68551111-2.63964444-72.77226667-1.76355555-24.07537778-2.99235555-48.3328-3.69777778-72.77226667-0.47786667-12.33351111-1.52462222-24.73528889-3.1744-37.18257778-1.64977778-12.45866667-2.46897778-24.73528889-2.46897778-36.82986666 0-2.13902222 0.11377778-4.26666667 0.35271111-6.40568889 0.22755555-2.11626667 0.45511111-4.13013333 0.69404445-6.03022222z m149.02613333 45.54524444c0-1.18328889-1.35395555-2.01386667-4.05048889-2.49173333-2.69653333-0.47786667-5.81404445-0.76231111-9.32977777-0.88746667-3.52711111-0.11377778-7.04284445-0.18204445-10.56995556-0.18204444s-5.98471111-0.11377778-7.39555556-0.35271111a383.59950222 383.59950222 0 0 0-36.98915555-3.19715556 964.32355555 964.32355555 0 0 0-36.98915556-0.7168h-5.27928889c-0.23893333 10.20586667 0.18204445 20.40035555 1.2288 30.60622222 1.05813333 10.20586667 1.82044445 20.40035555 2.28693334 30.60622222 11.9808 0.94435555 23.83644445 1.66115555 35.57831111 2.13902223 11.74186667 0.47786667 23.59751111 0.7168 35.57831111 0.7168 6.57635555 0 12.50417778 0.05688889 17.79484444 0.18204444 5.27928889 0.12515555 9.73937778-0.53475555 13.39164445-1.95697777 3.64088889-1.42222222 6.4512-4.15288889 8.45368889-8.18062223 1.99111111-4.02773333 2.99235555-10.19448889 2.99235555-18.50026667 0-1.66115555-0.18204445-3.7888-0.52337777-6.40568888-0.35271111-2.60551111-0.76231111-5.33617778-1.2288-8.18062222-0.47786667-2.84444445-1.18328889-5.44995555-2.11626667-7.82791112-0.95573333-2.40071111-1.90008889-4.17564445-2.83306667-5.37031111z m-24.66702222 96.79075556c-5.87093333 0-12.21973333 0.05688889-19.02364444 0.18204444-6.81528889 0.12515555-13.73297778 0.12515555-20.7872 0-7.04284445-0.11377778-13.91502222-0.53475555-20.60515556-1.25155555-6.69013333-0.7168-12.85688889-1.77493333-18.50026667-3.19715556v4.26666667c0 12.81137778 0.05688889 25.67964445 0.18204445 38.6048 0.11377778 12.93653333 0.76231111 25.67964445 1.93422222 38.25208889l2.82168889 2.13902222c11.50293333 1.19466667 22.94897778 2.37795555 34.34951111 3.56124444 11.38915555 1.19466667 22.94897778 1.77493333 34.70222222 1.77493334 1.87733333 0 4.58524445-0.11377778 8.10097778-0.35271112 3.52711111-0.22755555 7.09973333-0.76231111 10.74062222-1.60426666 3.64088889-0.83057778 6.92906667-1.95697778 9.86453334-3.3792 2.93546667-1.42222222 4.75591111-3.19715555 5.46133333-5.33617778 0.70542222-0.47786667 1.28568889-1.60426667 1.76355555-3.3792 0.46648889-1.77493333 0.76231111-3.73191111 0.87608889-5.87093333 0.11377778-2.13902222 0.22755555-4.20977778 0.35271111-6.22364445 0.11377778-2.01386667 0.18204445-3.49297778 0.18204445-4.44871111 0-9.96693333-0.83057778-19.44462222-2.46897778-28.4672-1.64977778-9.0112-4.10737778-18.14755555-7.39555555-27.39768889-3.75466667 0-7.52071111 0.35271111-11.27537778 1.06951112-3.75466667 0.70542222-7.52071111 1.05813333-11.27537778 1.05813333zM353.84888889 230.96888889c0-2.60551111 0.29582222-4.80142222 0.87608889-6.58773334 0.58026667-1.77493333 2.52586667-3.61813333 5.81404444-5.51822222 4.69902222-2.36657778 9.27288889-4.63075555 13.74435556-6.7584 4.46008889-2.13902222 8.98844445-3.97084445 13.56231111-5.51822222 4.57386667-1.536 9.45493333-2.71928889 14.62044444-3.56124444 5.16551111-0.83057778 10.79751111-1.24017778 16.90737778-1.24017778 27.47733333 0 47.96871111 6.22364445 61.47413334 18.68231111 13.50542222 12.45866667 20.25244445 30.54933333 20.25244444 54.26062222 0 12.09457778-0.23893333 24.73528889-0.70542222 37.89937778-0.47786667 13.16408889-1.05813333 26.27128889-1.76355556 39.3216-0.47786667 5.68888889-0.83057778 11.51431111-1.05813333 17.43075555-0.23893333 5.92782222-0.47786667 11.62808889-0.70542223 17.07804445 0 1.19466667-0.4096 2.13902222-1.2288 2.84444445-0.83057778 0.7168-1.82044445 1.06951111-2.99235555 1.0695111-0.94435555 0-1.87733333 0.12515555-2.82168889 0.35271112-0.47786667 0-1.05813333 0.05688889-1.76355556 0.18204444s-1.29706667 0.18204445-1.76355555 0.18204444c-1.41084445 0.23893333-3.06062222 0.42097778-4.93795555 0.53475556-1.87733333 0.12515555-3.52711111 0.18204445-4.92657778 0.18204444-1.41084445 0-3.06062222-0.18204445-4.93795556-0.53475555-1.87733333-0.35271111-3.40195555-0.64853333-4.58524444-0.88746667h-0.70542222c-0.23893333 0-0.35271111-0.11377778-0.35271112-0.35271111-1.18328889-0.23893333-2.58275555-0.35271111-4.23253333-0.35271111l-1.76355555 0.35271111c-1.18328889 0-2.7648 0.18204445-4.75591112 0.53475556-2.00248889 0.35271111-3.93671111 0.77368889-5.81404444 1.24017777-3.28817778 0.95573333-7.04284445 1.77493333-11.27537778 2.49173334-4.23253333 0.7168-8.69262222 1.06951111-13.39164444 1.06951111-11.9808 0-22.31182222-1.77493333-31.00444445-5.33617778-8.69262222-3.56124445-15.84924445-8.36266667-21.49262222-14.41564444-5.632-6.05297778-9.86453333-13.16408889-12.68622222-21.35608889-2.82168889-8.18062222-4.23253333-16.90737778-4.23253333-26.15751111 0-1.66115555 0.35271111-4.44871111 1.05813333-8.36266667 0.70542222-3.91395555 1.70666667-8.00995555 2.99235555-12.27662222 1.28568889-4.26666667 2.75342222-8.18062222 4.4032-11.74186667 1.6384-3.56124445 3.40195555-5.92782222 5.27928889-7.12248889l5.27928889-2.84444444 4.23253334-2.49173334v0.35271112c2.82168889-1.66115555 6.22364445-3.14026667 10.21724444-4.44871112 3.9936-1.29706667 8.21475555-2.30968889 12.68622222-3.02648888 4.46008889-0.7168 8.8064-1.24017778 13.03893334-1.60426667 4.23253333-0.35271111 7.74826667-0.53475555 10.56995555-0.53475555 4.69902222 0 9.10222222 0.23893333 13.2096 0.7168 4.10737778 0.47786667 8.15786667 0.95573333 12.15146667 1.42222222l4.57386666 1.06951111c0.93297778 0 1.82044445 0.12515555 2.63964445 0.35271111 0.8192 0.23893333 1.70666667 0.35271111 2.63964444 0.35271111 0.46648889-1.66115555 0.64853333-3.32231111 0.52337778-4.98346667-0.12515555-1.66115555-0.17066667-3.19715555-0.17066667-4.63075555 0-2.84444445-0.29582222-6.05297778-0.87608888-9.60284445-0.59164445-3.56124445-1.2288-6.99733333-1.93422223-10.31964444-5.87093333-2.60551111-12.33351111-5.09724445-19.37635555-7.4752-7.04284445-2.36657778-13.50542222-3.56124445-19.37635556-3.56124444-8.69262222 0-17.08942222 1.54737778-25.1904 4.63075555-8.10097778 3.08337778-14.7456 5.68888889-19.89973333 7.82791111v-0.35271111l-3.1744 2.13902222c-1.18328889 0.95573333-2.28693333 1.54737778-3.34506667 1.77493333-1.05813333 0.23893333-2.41208889 0.35271111-4.05048889 0.35271112l-2.11626667-0.35271112c-0.70542222 0-1.29706667-0.11377778-1.76355555-0.3527111-0.47786667 0-0.94435555-0.11377778-1.41084445-0.35271112l-1.41084444-1.42222222c-1.87733333-6.16675555-2.82168889-11.9808-2.82168889-17.43075556V230.96888889z m102.87786666 106.3936c0.22755555-4.5056 0.46648889-9.06808889 0.70542223-13.69884444 0.22755555-4.63075555 0.58026667-8.00995555 1.05813333-10.1376-1.41084445-0.47786667-3.9936-0.88746667-7.74826666-1.24017778-3.75466667-0.35271111-7.74826667-0.59164445-11.9808-0.7168-4.23253333-0.11377778-8.22613333-0.22755555-11.9808-0.35271112-3.75466667-0.11377778-6.10986667-0.18204445-7.04284445-0.18204444-5.16551111 0-9.39804445 0.18204445-12.68622222 0.53475556-3.28817778 0.35271111-5.92782222 1.25155555-7.93031111 2.67377778-2.00248889 1.42222222-3.34506667 3.3792-4.05048889 5.87093333-0.70542222 2.49173333-1.05813333 5.87093333-1.05813333 10.1376 0 10.91128889 2.93546667 18.56853333 8.8064 22.94897777 5.87093333 4.39182222 15.03004445 6.58773333 27.47733333 6.58773334 2.82168889 0 6.87217778-0.29582222 12.15146667-0.88746667s9.68248889-1.47911111 13.2096-2.67377777c0-1.42222222 0.05688889-3.14026667 0.17066666-5.15413334 0.11377778-2.01386667 0.29582222-3.97084445 0.52337778-5.87093333v-2.84444445c0-0.47786667 0.05688889-1.00124445 0.18204444-1.60426666 0.11377778-0.59164445 0.17066667-1.1264 0.17066667-1.60426667v-1.78631111zM522.60408889 354.44053333l-0.36408889-0.70542222 0.35271111 0.35271111v0.35271111z m23.95022222-128.1024c3.9936-2.36657778 7.33866667-4.20977778 10.0352-5.51822222 2.69653333-1.29706667 5.46133333-2.54862222 8.28302222-3.73191111l5.27928889-1.77493333v-0.35271112c2.34382222-0.94435555 5.16551111-1.77493333 8.45368889-2.49173333 3.28817778-0.7168 6.22364445-1.06951111 8.8064-1.06951111 20.90097778 0 39.45813333 5.2224 55.66008889 15.65582222 1.87733333 0.95573333 3.81155555 2.2528 5.81404445 3.91395556 1.99111111 1.66115555 3.57262222 3.08337778 4.7559111 4.26666666 0.46648889 0.47786667 1.41084445 1.30844445 2.8216889 2.49173334 1.41084445 1.19466667 2.34382222 2.01386667 2.82168888 2.49173333v0.35271111c0 0.23893333 0.05688889 0.42097778 0.17066667 0.53475556 0.11377778 0.12515555 0.18204445 0.29582222 0.18204445 0.53475556l0.3527111 2.84444444-0.3527111 3.56124444c-0.47786667 1.66115555-1.05813333 3.56124445-1.76355556 5.68888889-0.70542222 2.13902222-1.64977778 4.15288889-2.82168889 6.05297778a16.92785778 16.92785778 0 0 1-4.4032 4.80142222c-1.76355555 1.30844445-3.82293333 1.95697778-6.16675555 1.95697778-2.82168889 0-6.10986667-1.29706667-9.86453334-3.91395555-3.76604445-2.60551111-6.92906667-5.21102222-9.51182222-7.82791112l-4.23253334-3.56124444c-0.70542222 0-1.29706667-0.23893333-1.76355555-0.7168h0.35271111l-7.74826666-2.13902222c-3.9936-1.42222222-7.93031111-2.60551111-11.79875556-3.56124445-3.87982222-0.94435555-7.93031111-1.42222222-12.15146667-1.42222222l-3.52711111 0.35271111c-3.9936 1.19466667-7.74826667 3.80017778-11.27537778 7.82791111-3.52711111 4.03911111-5.27928889 7.71413333-5.27928888 11.03644445 0 4.26666667 1.05813333 7.77102222 3.1744 10.50168888 2.11626667 2.73066667 4.92657778 4.98346667 8.45368888 6.7584 3.52711111 1.77493333 7.45244445 3.15164445 11.79875556 4.096 4.34631111 0.95573333 8.86328889 1.90008889 13.56231111 2.84444445 7.9872 1.19466667 16.14506667 3.08337778 24.48497778 5.68888889 8.32853333 2.61688889 14.848 6.29191111 19.54702222 11.03644444 2.34382222 2.37795555 4.23253333 4.92657778 5.632 7.64586667 1.41084445 2.73066667 2.69653333 5.75715555 3.87982222 9.07946667l2.11626667 6.40568888v-0.3527111c0.93297778 2.13902222 1.70666667 4.44871111 2.28693333 6.94044444 0.58026667 2.49173333 0.87608889 5.04035555 0.87608889 7.64586666l-0.35271111 4.98346667c-0.94435555 9.96693333-3.584 18.27271111-7.93031111 24.90595556-4.34631111 6.64462222-12.15146667 12.6976-23.42684444 18.14755555-0.47786667 0.23893333-3.28817778 1.06951111-8.4536889 2.49173334-5.16551111 1.42222222-11.1616 2.61688889-17.9655111 3.56124444l-1.05813334 0.35271111h-3.1744c-9.15911111 0-18.50026667-1.18328889-28.01208889-3.56124444-9.51182222-2.36657778-17.78346667-6.05297778-24.83768889-11.03644445-0.23893333 0-0.87608889-0.23893333-1.93422222-0.7168-1.05813333-0.47786667-1.82044445-0.83057778-2.28693333-1.06951111l-3.1744-2.13902222c-1.87733333-1.18328889-3.64088889-2.84444445-5.27928889-4.98346667-1.64977778-2.13902222-3.28817778-4.26666667-4.92657778-6.40568888l-3.1744-3.56124445-4.92657778-7.82791111c0.46648889-3.08337778 0.93297778-5.98471111 1.41084445-8.71537778 0.46648889-2.71928889 1.05813333-4.80142222 1.76355555-6.22364444 0.46648889-2.84444445 1.82044445-5.21102222 4.05048889-7.12248889 2.23004445-1.90008889 4.98346667-3.43608889 8.28302223-4.63075556l0.70542222 0.7168c2.34382222 1.90008889 4.4032 3.85706667 6.16675555 5.87093333 1.76355555 2.01386667 3.57262222 4.33493333 5.46133333 6.94044445h-0.3527111c1.41084445 0.47786667 2.40071111 1.25155555 2.99235555 2.30968889 0.58026667 1.06951111 0.87608889 1.95697778 0.87608889 2.67377778 6.10986667 4.03911111 13.56231111 7.95306667 22.36871111 11.74186666 8.8064 3.80017778 17.44213333 5.68888889 25.89582222 5.68888889 1.17191111 0 3.04924445-0.23893333 5.632-0.7168 2.58275555-0.47786667 4.92657778-1.42222222 7.04284445-2.84444444 1.87733333-2.60551111 3.52711111-5.68888889 4.92657778-9.25013333 1.41084445-3.56124445 2.11626667-6.99733333 2.11626666-10.31964445 0-2.13902222-0.12515555-4.096-0.35271111-5.87093333-0.23893333-1.77493333-0.59164445-3.49297778-1.05813333-5.15413334l-0.70542222-2.13902222-1.76355556-1.77493333c0-0.23893333-0.17066667-0.53475555-0.52337778-0.88746667-0.35271111-0.35271111-0.64853333-0.64853333-0.87608889-0.88746666-4.46008889-1.66115555-8.8064-2.9696-13.03893333-3.91395556-4.23253333-0.94435555-8.57884445-1.77493333-13.03893334-2.49173334-5.16551111-0.94435555-10.27413333-1.90008889-15.32586666-2.84444444-5.05173333-0.94435555-9.56871111-2.36657778-13.56231111-4.26666666h0.35271111a44.91491555 44.91491555 0 0 1-14.09706667-7.4752c-4.23253333-3.32231111-7.93031111-7.05422222-11.09333333-11.20711112-3.1744-4.15288889-5.632-8.54471111-7.39555556-13.16408888-1.76355555-4.63075555-2.63964445-8.95431111-2.63964444-12.99342223 0-3.56124445 0.4096-7.40693333 1.2288-11.55982222 0.8192-4.15288889 2.16177778-8.00995555 4.05048889-11.55982222 1.17191111-0.7168 1.87733333-1.42222222 2.11626667-2.13902223 0.22755555-0.7168 0.46648889-1.42222222 0.70542222-2.13902222h-0.35271112c0-0.22755555 0.05688889-0.29582222 0.18204445-0.18204444 0.11377778 0.12515555 0.18204445 0.05688889 0.18204445-0.18204444 0.46648889-1.18328889 1.05813333-2.49173333 1.76355555-3.91395556s1.6384-2.49173333 2.82168889-3.19715556l7.05422222-3.8912zM688.17351111 302.13688889c0-7.82791111 0.35271111-15.65582222 1.05813334-23.48373334 0.70542222-8.30577778 3.21991111-16.37262222 7.5776-24.20053333a85.54382222 85.54382222 0 0 1 16.384-20.992c6.57635555-6.16675555 13.91502222-11.15022222 22.016-14.9504 8.10097778-3.7888 16.384-5.68888889 24.83768888-5.68888889 7.28177778 0 13.67608889 0.23893333 19.19431112 0.7168 5.51822222 0.47786667 12.03768889 2.01386667 19.54702222 4.63075556 0.22755555 0.23893333 0.8192 0.59164445 1.76355555 1.06951111 0.70542222 0.47786667 1.52462222 0.88746667 2.46897778 1.24017778 0.93297778 0.35271111 2.23004445 0.88746667 3.87982222 1.60426667 2.58275555 1.19466667 6.51946667 3.91395555 11.79875556 8.18062222 5.27928889 4.26666667 10.4448 9.25013333 15.49653333 14.9504 5.05173333 5.68888889 9.27288889 11.74186667 12.68622222 18.14755555 3.40195555 6.40568889 4.63075555 12.57244445 3.69777778 18.50026667 0 1.42222222-0.11377778 3.19715555-0.35271111 5.33617778-0.23893333 2.13902222-0.47786667 4.26666667-0.70542222 6.40568888-0.23893333 2.13902222-0.47786667 4.096-0.70542223 5.87093334-0.23893333 1.77493333-0.47786667 3.15164445-0.70542222 4.096 0 1.90008889-0.94435555 3.32231111-2.82168888 4.26666666-1.87733333 0.95573333-4.05048889 1.60426667-6.51946667 1.95697778-2.46897778 0.35271111-5.05173333 0.53475555-7.74826667 0.53475556h-8.28302222c-16.90737778 0-32.99555555-0.35271111-48.26453334-1.06951111-15.26897778-0.7168-31.35715555-1.66115555-48.26453333-2.84444445 1.6384 8.30577778 3.34506667 15.00728889 5.10862223 20.10453334 1.76355555 5.10862222 4.86968889 10.61546667 9.32977777 16.54328888l-0.35271111-0.7168c7.50933333 4.03911111 14.90488889 7.23626667 22.19804444 9.60284445 7.28177778 2.37795555 14.67733333 3.56124445 22.19804445 3.56124445 5.632 0 10.79751111-0.64853333 15.50791111-1.95697778 4.69902222-1.29706667 8.86328889-2.84444445 12.50417778-4.63075556 3.64088889-1.77493333 6.81528889-3.61813333 9.51182222-5.51822222 2.69653333-1.90008889 4.86968889-3.56124445 6.51946667-4.98346667 2.11626667-1.42222222 4.10737778-2.84444445 5.98471111-4.26666667 0.93297778-0.7168 1.76355555-1.29706667 2.46897778-1.77493333 2.34382222 0 4.23253333 1.06951111 5.632 3.19715556 1.41084445 2.13902222 2.46897778 4.5056 3.1744 7.12248889 0.70542222 2.61688889 1.11502222 5.27928889 1.2288 8.00995555 0.11377778 2.73066667 0.18204445 4.57386667 0.18204444 5.51822223v7.8279111c0 0.47786667-0.05688889 1.06951111-0.18204444 1.77493334-0.12515555 0.7168-0.64853333 1.30844445-1.58151112 1.77493333-8.93155555 8.78364445-17.90862222 15.48515555-26.95395555 20.10453333-9.04533333 4.63075555-20.13866667 6.94044445-33.29137778 6.94044445-21.37884445 0-39.40124445-4.56248889-54.07857777-13.69884445-14.67733333-9.12497778-26.36231111-23.42684445-35.05493334-42.88284444-1.87733333-5.44995555-3.69777778-11.08195555-5.46133333-16.90737778-1.75217778-5.80266667-2.62826667-12.14008889-2.62826667-19.02364444z m123.30097778-32.74524444l-0.70542222-0.35271112c-4.23253333-4.5056-8.33991111-7.94168889-12.33351112-10.31964444-3.9936-2.36657778-8.16924445-4.096-12.50417777-5.15413334-4.34631111-1.06951111-8.93155555-1.71804445-13.74435556-1.95697777-4.8128-0.22755555-10.0352-0.35271111-15.67857777-0.35271111-1.87733333 0-4.10737778 0.47786667-6.69013334 1.42222222-2.58275555 0.95573333-5.10862222 2.19591111-7.5776 3.73191111a59.80842667 59.80842667 0 0 0-7.04284444 5.16551111c-2.23004445 1.90008889-3.82293333 3.91395555-4.75591112 6.05297778 13.85813333 0.7168 27.53422222 1.36533333 41.03964445 1.95697778 13.50542222 0.59164445 27.06773333 0.88746667 40.68693333 0.88746666h1.76355556l-2.4576-1.08088888zM218.95395555 743.7312c26.37368889-18.64817778 60.95075555-27.97795555 103.7312-27.97795555 46.55786667 0 85.69742222 7.4752 117.4072889 22.41422222 31.70986667 14.93902222 47.55911111 33.41653333 47.5591111 55.42115555 0 22.58488889-18.65955555 41.84746667-55.99004444 57.77635556s-82.54577778 23.89333333-135.63448889 23.89333333c-59.85848889 0-109.57937778-11.20711111-149.13991111-33.62133333-39.56053333-22.41422222-59.34648889-50.5856-59.34648889-84.52551111 0-37.87662222 21.35608889-69.87093333 64.07964445-95.99431112 42.71217778-26.12337778 94.98168889-39.18506667 156.79715555-39.18506666 39.10542222 0 74.11484445 5.56373333 105.01688889 16.67982222 30.90204445 11.11608889 46.35306667 23.74542222 46.35306667 37.87662222 0 18.06791111-20.87822222 27.10186667-62.61191111 27.10186667-22.48248889 0-41.17617778-1.96835555-56.08106667-5.90506667 0.79644445-4.4032 1.20604445-8.05546667 1.20604445-10.94542222 0-17.14631111-16.16782222-25.71377778-48.50346667-25.71377778-27.40906667 0-46.72853333 6.20088889-57.96977778 18.59128889-11.25262222 12.40177778-16.87324445 33.76924445-16.87324445 64.11377778z m73.1136 9.38666667c-19.95662222 0-36.75022222 4.14151111-50.40355555 12.42453333-13.65333333 8.28302222-20.46862222 18.50026667-20.46862222 30.66311111 0 11.58257778 6.2464 21.13991111 18.75057777 28.672 12.4928 7.53208889 28.44444445 11.29813333 47.8208 11.29813334 44.83982222 0 67.25404445-14.1312 67.25404445-42.3936 0-12.16284445-5.75715555-21.98186667-17.28284445-29.4456889-11.52568889-7.48657778-26.74915555-11.21848889-45.6704-11.21848888zM829.09866667 630.272v130.83306667h87.38133333l-29.07022222 39.09404444H829.09866667v11.81013334l93.92355555 55.42115555H605.99182222l105.61991111-55.42115555V800.19911111H498.4832v-44.65777778l221.21813333-125.26933333h109.39733334zM711.61173333 761.10506667v-74.36515556l-126.2592 74.36515556h126.2592z" p-id="149950" fill="#515151"></path></svg>