<?xml version="1.0" standalone="no"?><!DOCTYPE svg PUBLIC "-//W3C//DTD SVG 1.1//EN" "http://www.w3.org/Graphics/SVG/1.1/DTD/svg11.dtd"><svg t="1759070276569" class="icon" viewBox="0 0 1024 1024" version="1.1" xmlns="http://www.w3.org/2000/svg" p-id="152971" xmlns:xlink="http://www.w3.org/1999/xlink" width="128" height="128"><path d="M94.075296 575.817609c17.048748-6.860457 35.684616-10.751462 55.293236-10.751462H219.150642a287.985601 287.985601 0 0 1-8.345182-67.836608c-0.255987-162.80786 134.444478-293.770911 301.552922-293.20774 167.159642 0.511974 300.528974 130.451077 300.528974 292.849357 0 23.550822-3.020649 46.333683-8.345183 68.194991h70.140493c19.455027 0 38.039698 3.839808 55.037248 10.59787 1.331133-7.065247 2.559872-14.079296 3.583821-21.298135 14.130493-101.934103-6.297285-197.622119-65.276736-283.633819-79.40723-115.911004-192.19519-177.19434-334.319284-187.894605v-26.878656c12.901755-1.689516 29.336133 0.767962 35.735813-5.938903 6.962852-7.218839 4.914954-22.936453 5.887705-35.019049 0.870356-10.239488-5.529324-14.949653-15.564021-14.949653-30.564872-0.102395-61.129744 0-91.694616 0-9.676316 0-14.949653 4.300585-14.847257 14.130494 0.102395 8.60117 0.102395 17.253537 0 25.854707-0.153592 9.829909 5.324534 14.028099 14.847257 14.130494h21.861307v29.028948c-122.617869 7.986801-224.142393 56.112394-302.781661 146.322284C108.410579 319.881606 76.565772 425.450727 89.109145 543.20484c1.126344 11.00745 2.918254 21.861307 5.017349 32.663967z m394.271487-15.512824c-12.287386 0-27.134643-2.662267-44.234589-7.935603a161.271936 161.271936 0 0 1-44.746562-21.144543l-14.335284-10.034698v43.876206h231.61722c7.577221-13.311334 11.519424-28.158592 11.519424-44.541773 0-24.062797-8.037998-44.695365-23.80681-61.180941-15.359232-15.973601-39.934003-29.950502-75.106645-42.647468-37.988501-13.772111-51.709415-22.014899-56.573171-26.520274a29.745713 29.745713 0 0 1-9.215539-23.19244c0-9.829909 4.351782-17.304735 13.720914-23.653218 10.137093-6.860457 24.421179-10.290685 42.545072-10.290685 28.056197 0 54.064497 7.372431 77.308135 22.014899l13.976901 8.754763V286.80806l-5.324534-2.355083c-23.755612-10.444278-51.19744-15.717614-81.403929-15.717614-40.189991 0-73.621919 9.573921-99.323034 28.41458-26.520274 19.455027-39.934003 44.746563-39.934004 75.055447 0 24.318784 7.167642 44.848958 21.298136 60.924953 13.925704 15.871206 37.425329 29.694515 71.932403 42.289086 27.339433 9.881106 46.79446 18.635868 58.0067 26.110694 9.471526 6.297285 13.823309 13.976901 13.823308 24.21639 0 14.847258-6.39968 34.558272-61.744112 34.558272z m386.284685 75.362632H149.368532c-40.087596 0-72.546773 31.588821-72.546773 70.60127v247.078846c0 39.012449 32.459177 70.60127 72.546773 70.60127h725.262936c40.087596 0 72.546773-31.588821 72.546773-70.60127v-247.078846c0-39.012449-32.459177-70.60127-72.546773-70.60127z m-106.18349 45.053747h71.830008l15.256837 18.123894-15.256837 17.407129h-71.830008l-15.308035-17.407129 15.308035-18.123894z m-34.81426 40.906755l14.847258-18.123894 14.79606 18.123894v82.683865l-29.694515 20.734964v-103.418829z m-122.105894-40.906755h71.830008l15.308035 18.123894-15.308035 17.407129h-71.830008l-15.256838-17.407129 15.256838-18.123894z m-34.81426 40.906755l14.847258-18.123894 14.79606 18.123894v82.683865l-29.694515 20.734964v-103.418829z m-235.661817-40.906755h71.830009l15.256837 18.123894-15.256837 17.407129H341.00055l-15.308035-17.407129 15.308035-18.123894z m-34.814259 40.906755l14.847258-18.123894 14.79606 18.123894v82.683865l-29.694515 20.734964v-103.418829z m-122.105895-40.906755H256.012799l15.308035 18.123894-15.308035 17.407129H184.131593l-15.256837-17.407129 15.256837-18.123894z m-34.814259 40.906755l14.847258-18.123894 14.847257 18.123894v82.683865l-29.745712 20.734964v-103.418829z m0 215.59242v-103.418829l29.694515 18.072696v85.346133l-14.847257 18.123894-14.847258-18.123894z m106.644268 41.674716H184.131593l-15.256837-18.072696 15.256837-17.458327H256.012799l15.308035 17.407129-15.308035 18.123894z m34.302285-41.674716l-14.847258 18.123894-14.847257-18.123894v-85.243738l29.694515-18.072696v103.316434z m0-112.122394l-29.694515-20.786161v-82.581471l14.79606-18.072696 14.847257 18.072696v103.316435z m15.973601 112.122394v-103.418829l29.694515 18.072696v85.346133l-14.847257 18.123894-14.847258-18.123894z m106.644268 41.674716H341.00055l-15.308035-18.072696 15.308035-17.458327h71.830008l15.256838 17.407129-15.256838 18.123894z m34.251087-41.674716l-14.847257 18.123894-14.847258-18.123894v-85.243738l29.694515-18.072696v103.316434z m0-112.122394l-29.694515-20.786161v-82.581471l14.847258-18.072696 14.847257 18.072696v103.316435z m81.045548 72.700365h-32.40798v-31.58882h32.40798v31.537623z m0-104.493975h-32.40798v-31.588821h32.40798v31.588821z m48.535173 143.916004v-103.418829l29.694516 18.072696v85.346133l-14.847258 18.123894-14.847258-18.123894z m106.644268 41.674716h-71.830008l-15.256838-18.072696 15.256838-17.458327h71.830008l15.308035 17.407129-15.308035 18.123894z m34.40468-41.674716l-14.847258 18.123894-14.847257-18.123894v-85.243738l29.694515-18.072696v103.316434z m0-112.122394l-29.694515-20.786161v-82.581471l14.847257-18.072696 14.79606 18.072696v103.316435z m15.871206 112.122394v-103.418829l29.694516 18.072696v85.346133l-14.847258 18.123894-14.847258-18.123894z m106.644268 41.674716h-71.830008l-15.308035-18.072696 15.308035-17.458327h71.830008l15.256837 17.407129-15.256837 18.123894z m34.353482-41.674716l-14.847257 18.123894-14.79606-18.123894v-85.243738l29.694515-18.072696v103.316434z m0-112.122394l-29.694515-20.786161v-82.581471l14.847258-18.072696 14.847257 18.072696v103.316435z" fill="#515151" p-id="152972"></path></svg>